<svg width="413" height="53" viewBox="0 0 413 53" fill="none" xmlns="http://www.w3.org/2000/svg">
<rect width="413" height="53" rx="8" fill="#EAECE5"/>
<path d="M29.6364 21.3636V33H28.2727L21.9318 23.8636H21.8182V33H20.4091V21.3636H21.7727L28.1364 30.5227H28.25V21.3636H29.6364ZM35.8196 33.1818C35.0317 33.1818 34.3404 32.9943 33.7457 32.6193C33.1548 32.2443 32.6927 31.7197 32.3594 31.0455C32.0298 30.3712 31.8651 29.5833 31.8651 28.6818C31.8651 27.7727 32.0298 26.9792 32.3594 26.3011C32.6927 25.6231 33.1548 25.0966 33.7457 24.7216C34.3404 24.3466 35.0317 24.1591 35.8196 24.1591C36.6075 24.1591 37.2969 24.3466 37.8878 24.7216C38.4825 25.0966 38.9446 25.6231 39.2741 26.3011C39.6075 26.9792 39.7741 27.7727 39.7741 28.6818C39.7741 29.5833 39.6075 30.3712 39.2741 31.0455C38.9446 31.7197 38.4825 32.2443 37.8878 32.6193C37.2969 32.9943 36.6075 33.1818 35.8196 33.1818ZM35.8196 31.9773C36.4181 31.9773 36.9105 31.8239 37.2969 31.517C37.6832 31.2102 37.9692 30.8068 38.1548 30.3068C38.3404 29.8068 38.4332 29.2652 38.4332 28.6818C38.4332 28.0985 38.3404 27.5549 38.1548 27.0511C37.9692 26.5473 37.6832 26.1402 37.2969 25.8295C36.9105 25.5189 36.4181 25.3636 35.8196 25.3636C35.2211 25.3636 34.7287 25.5189 34.3423 25.8295C33.956 26.1402 33.67 26.5473 33.4844 27.0511C33.2988 27.5549 33.206 28.0985 33.206 28.6818C33.206 29.2652 33.2988 29.8068 33.4844 30.3068C33.67 30.8068 33.956 31.2102 34.3423 31.517C34.7287 31.8239 35.2211 31.9773 35.8196 31.9773ZM41.821 33V24.2727H43.1165V25.6364H43.2301C43.4119 25.1705 43.7055 24.8087 44.1108 24.5511C44.5161 24.2898 45.0028 24.1591 45.571 24.1591C46.1468 24.1591 46.6259 24.2898 47.0085 24.5511C47.3949 24.8087 47.696 25.1705 47.9119 25.6364H48.0028C48.2263 25.1856 48.5616 24.8277 49.0085 24.5625C49.4555 24.2936 49.9915 24.1591 50.6165 24.1591C51.3968 24.1591 52.035 24.4034 52.5312 24.892C53.0275 25.3769 53.2756 26.1326 53.2756 27.1591V33H51.9347V27.1591C51.9347 26.5152 51.7585 26.0549 51.4062 25.7784C51.054 25.5019 50.6392 25.3636 50.1619 25.3636C49.5483 25.3636 49.0729 25.5492 48.7358 25.9205C48.3987 26.2879 48.2301 26.7538 48.2301 27.3182V33H46.8665V27.0227C46.8665 26.5265 46.7055 26.1269 46.3835 25.8239C46.0616 25.517 45.6468 25.3636 45.1392 25.3636C44.7907 25.3636 44.465 25.4564 44.1619 25.642C43.8627 25.8277 43.6203 26.0852 43.4347 26.4148C43.2528 26.7405 43.1619 27.1174 43.1619 27.5455V33H41.821ZM59.3864 33.1818C58.5455 33.1818 57.8201 32.9962 57.2102 32.625C56.6042 32.25 56.1364 31.7273 55.8068 31.0568C55.4811 30.3826 55.3182 29.5985 55.3182 28.7045C55.3182 27.8106 55.4811 27.0227 55.8068 26.3409C56.1364 25.6553 56.5947 25.1212 57.1818 24.7386C57.7727 24.3523 58.4621 24.1591 59.25 24.1591C59.7045 24.1591 60.1534 24.2348 60.5966 24.3864C61.0398 24.5379 61.4432 24.7841 61.8068 25.125C62.1705 25.4621 62.4602 25.9091 62.6761 26.4659C62.892 27.0227 63 27.7083 63 28.5227V29.0909H56.2727V27.9318H61.6364C61.6364 27.4394 61.5379 27 61.3409 26.6136C61.1477 26.2273 60.8712 25.9223 60.5114 25.6989C60.1553 25.4754 59.7348 25.3636 59.25 25.3636C58.7159 25.3636 58.2538 25.4962 57.8636 25.7614C57.4773 26.0227 57.1799 26.3636 56.9716 26.7841C56.7633 27.2045 56.6591 27.6553 56.6591 28.1364V28.9091C56.6591 29.5682 56.7727 30.1269 57 30.5852C57.2311 31.0398 57.5511 31.3864 57.9602 31.625C58.3693 31.8598 58.8447 31.9773 59.3864 31.9773C59.7386 31.9773 60.0568 31.928 60.3409 31.8295C60.6288 31.7273 60.8769 31.5758 61.0852 31.375C61.2936 31.1705 61.4545 30.9167 61.5682 30.6136L62.8636 30.9773C62.7273 31.4167 62.4981 31.803 62.1761 32.1364C61.8542 32.4659 61.4564 32.7235 60.983 32.9091C60.5095 33.0909 59.9773 33.1818 59.3864 33.1818Z" fill="#383838"/>
</svg>
